<svg width="512" height="512" viewBox="0 0 512 512" fill="none" xmlns="http://www.w3.org/2000/svg">
<rect width="512" height="512" rx="50" fill="#1B4D92"/>
<path d="M121.559 396.734C105.245 387.157 92.3024 374.036 82.7249 357.369C73.508 340.7 68.8937 321.728 68.8937 300.452C68.8937 279.174 73.508 260.201 82.7249 243.531C92.3024 226.51 105.245 213.21 121.559 203.637C137.871 194.062 156.313 189.273 176.881 189.273C197.45 189.273 215.889 194.062 232.201 203.637C248.516 213.21 261.283 226.51 270.504 243.531C276.613 254.577 280.698 266.634 282.76 279.703H238.623C232.953 279.703 228.163 281.655 224.261 285.555C220.363 289.457 218.414 294.422 218.414 300.448C218.414 306.125 220.363 310.913 224.261 314.812C228.163 318.712 232.953 320.665 238.623 320.665H282.844C280.81 333.938 276.698 346.172 270.504 357.369C261.283 374.036 248.516 387.157 232.201 396.734C215.889 406.309 197.45 411.094 176.881 411.094C156.313 411.094 137.871 406.309 121.559 396.734ZM252.417 429.181C274.758 416.415 292.312 398.86 305.08 376.517C315.002 359.623 321.174 341.005 323.59 320.665H363.631C369.661 320.665 374.628 318.712 378.529 314.812C382.425 310.913 384.376 306.125 384.376 300.448C384.376 294.422 382.425 289.457 378.529 285.555C374.628 281.655 369.661 279.703 363.631 279.703H323.359C320.776 259.278 314.685 240.66 305.08 223.85C292.312 201.509 274.758 183.955 252.417 171.189C230.431 158.423 205.249 152.038 176.881 152.038C148.51 152.038 123.156 158.423 100.812 171.189C78.4713 183.955 60.9147 201.509 48.1505 223.85C35.385 246.192 29 271.727 29 300.452C29 328.822 35.385 354.177 48.1505 376.517C60.9147 398.86 78.4713 416.415 100.812 429.181C123.156 441.948 148.51 448.331 176.881 448.331C205.249 448.331 230.431 441.948 252.417 429.181Z" fill="white"/>
<path d="M436.566 116.347C428.985 116.347 422.437 113.589 416.921 108.074C411.409 102.563 408.651 95.8407 408.651 87.9151C408.651 79.3016 411.409 72.5769 416.921 67.7546C422.783 62.584 429.499 60 437.084 60C444.32 60 450.695 62.584 456.211 67.7546C462.069 72.5769 465 79.3016 465 87.9151C465 95.8407 462.242 102.563 456.727 108.074C451.213 113.589 444.494 116.347 436.566 116.347ZM437.084 452.883C430.88 452.883 425.88 451.161 422.094 447.714C418.646 443.925 416.921 438.928 416.921 432.724V190.273C416.921 184.069 418.646 179.245 422.094 175.797C425.88 172.005 430.88 170.11 437.084 170.11C442.941 170.11 447.596 172.005 451.041 175.797C454.832 179.245 456.727 184.069 456.727 190.273V432.724C456.727 438.928 454.832 443.925 451.041 447.714C447.596 451.161 442.941 452.883 437.084 452.883Z" fill="white"/>
</svg>
